<svg width="16" height="16" viewBox="0 0 16 16" fill="none" xmlns="http://www.w3.org/2000/svg">
<path d="M1.75 11C1.75 10.5858 1.41421 10.25 1 10.25C0.585786 10.25 0.25 10.5858 0.25 11H1.75ZM1 12H0.25H1ZM15.75 11C15.75 10.5858 15.4142 10.25 15 10.25C14.5858 10.25 14.25 10.5858 14.25 11H15.75ZM7.41435 11.5315C7.15559 11.8549 7.20803 12.3269 7.53148 12.5857C7.85493 12.8444 8.32689 12.792 8.58565 12.4685L7.41435 11.5315ZM12.5857 7.46852C12.8444 7.14507 12.792 6.67311 12.4685 6.41435C12.1451 6.15559 11.6731 6.20803 11.4143 6.53148L12.5857 7.46852ZM7.41435 12.4685C7.67311 12.792 8.14507 12.8444 8.46852 12.5857C8.79197 12.3269 8.84441 11.8549 8.58565 11.5315L7.41435 12.4685ZM4.58565 6.53148C4.32689 6.20803 3.85493 6.15559 3.53148 6.41435C3.20803 6.67311 3.15559 7.14507 3.41435 7.46852L4.58565 6.53148ZM7.25 12C7.25 12.4142 7.58579 12.75 8 12.75C8.41421 12.75 8.75 12.4142 8.75 12H7.25ZM8.75 1C8.75 0.585786 8.41421 0.25 8 0.25C7.58579 0.25 7.25 0.585786 7.25 1H8.75ZM0.25 11V12H1.75V11H0.25ZM0.25 12C0.25 14.0711 1.92893 15.75 4 15.75V14.25C2.75736 14.25 1.75 13.2426 1.75 12H0.25ZM4 15.75H12V14.25H4V15.75ZM12 15.75C14.0711 15.75 15.75 14.0711 15.75 12H14.25C14.25 13.2426 13.2426 14.25 12 14.25V15.75ZM15.75 12V11H14.25V12H15.75ZM8.58565 12.4685L12.5857 7.46852L11.4143 6.53148L7.41435 11.5315L8.58565 12.4685ZM8.58565 11.5315L4.58565 6.53148L3.41435 7.46852L7.41435 12.4685L8.58565 11.5315ZM8.75 12V1H7.25V12H8.75Z" fill="#259FFF"/>
</svg>
