<svg width="16" height="16" viewBox="0 0 16 16" fill="none" xmlns="http://www.w3.org/2000/svg">
<path d="M12.259 9.86796C11.9654 10.1601 11.9642 10.635 12.2563 10.9286C12.5485 11.2222 13.0234 11.2234 13.317 10.9313L12.259 9.86796ZM15.729 8.53126C16.0226 8.2391 16.0238 7.76423 15.7317 7.4706C15.4395 7.17698 14.9646 7.1758 14.671 7.46796L15.729 8.53126ZM14.671 8.53126C14.9646 8.82342 15.4395 8.82224 15.7317 8.52862C16.0238 8.23499 16.0226 7.76012 15.729 7.46796L14.671 8.53126ZM13.317 5.06796C13.0234 4.7758 12.5485 4.77698 12.2563 5.0706C11.9642 5.36423 11.9654 5.8391 12.259 6.13126L13.317 5.06796ZM15.2 8.74961C15.6142 8.74961 15.95 8.41382 15.95 7.99961C15.95 7.5854 15.6142 7.24961 15.2 7.24961L15.2 8.74961ZM4 7.24961C3.58579 7.24961 3.25 7.5854 3.25 7.99961C3.25 8.41382 3.58579 8.74961 4 8.74961L4 7.24961ZM13.317 10.9313L15.729 8.53126L14.671 7.46796L12.259 9.86796L13.317 10.9313ZM15.729 7.46796L13.317 5.06796L12.259 6.13126L14.671 8.53126L15.729 7.46796ZM15.2 7.24961L4 7.24961L4 8.74961L15.2 8.74961L15.2 7.24961Z" fill="#FF4B28"/>
<path d="M10.4004 5.59961C10.4004 3.8323 8.9677 2.39961 7.20039 2.39961L4.00039 2.39961C2.23308 2.39961 0.800391 3.8323 0.800391 5.59961L0.800391 10.3996C0.800391 12.1669 2.23308 13.5996 4.00039 13.5996L7.20039 13.5996C8.9677 13.5996 10.4004 12.1669 10.4004 10.3996" stroke="#FF4B28" stroke-width="1.5" stroke-linecap="round" stroke-linejoin="round"/>
</svg>
