<svg width="12" height="13" viewBox="0 0 12 13" fill="none" xmlns="http://www.w3.org/2000/svg">
<path d="M11.7071 10.7931L9.1686 8.25458C9.6931 7.46407 10.0001 6.51756 10.0001 5.50005C10.0001 2.74302 7.75708 0.5 5.00005 0.5C2.24302 0.5 0 2.74302 0 5.50005C0 8.25708 2.24302 10.5001 5.00005 10.5001C6.01756 10.5001 6.96407 10.1931 7.75458 9.6686L10.2931 12.2071C10.6831 12.5976 11.3171 12.5976 11.7071 12.2071C12.0976 11.8166 12.0976 11.1836 11.7071 10.7931ZM1.50002 5.50005C1.50002 3.57003 3.07003 2.00002 5.00005 2.00002C6.93007 2.00002 8.50009 3.57003 8.50009 5.50005C8.50009 7.43007 6.93007 9.00009 5.00005 9.00009C3.07003 9.00009 1.50002 7.43007 1.50002 5.50005Z" fill="#707E87"/>
</svg>
