<svg width="11" height="16" viewBox="0 0 11 16" fill="none" xmlns="http://www.w3.org/2000/svg">
<path class="marker" d="M4.31374 7.9602C4.11847 7.76494 3.80189 7.76494 3.60663 7.9602C3.41137 8.15547 3.41137 8.47205 3.60663 8.66731L4.31374 7.9602ZM5.17557 10.2363C5.37083 10.4315 5.68742 10.4315 5.88268 10.2363C6.07794 10.041 6.07794 9.72441 5.88268 9.52914L5.17557 10.2363ZM3.60663 11.0981C3.41137 11.2933 3.41137 11.6099 3.60663 11.8052C3.80189 12.0005 4.11847 12.0005 4.31374 11.8052L3.60663 11.0981ZM5.88268 10.2363C6.07794 10.041 6.07794 9.72441 5.88268 9.52914C5.68742 9.33388 5.37083 9.33388 5.17557 9.52914L5.88268 10.2363ZM7.45162 8.66731C7.64688 8.47205 7.64688 8.15547 7.45162 7.9602C7.25636 7.76494 6.93977 7.76494 6.74451 7.9602L7.45162 8.66731ZM5.17557 9.52914C4.98031 9.72441 4.98031 10.041 5.17557 10.2363C5.37083 10.4315 5.68742 10.4315 5.88268 10.2363L5.17557 9.52914ZM6.74451 11.8052C6.93977 12.0005 7.25636 12.0005 7.45162 11.8052C7.64688 11.6099 7.64688 11.2933 7.45162 11.0981L6.74451 11.8052ZM5.88268 9.52914C5.68742 9.33388 5.37083 9.33388 5.17557 9.52914C4.98031 9.72441 4.98031 10.041 5.17557 10.2363L5.88268 9.52914ZM7.18721 1.91211C7.46335 1.91211 7.68721 1.68825 7.68721 1.41211C7.68721 1.13597 7.46335 0.912109 7.18721 0.912109V1.91211ZM4.05026 0.912109C3.77412 0.912109 3.55026 1.13597 3.55026 1.41211C3.55026 1.68825 3.77412 1.91211 4.05026 1.91211V0.912109ZM10.235 3.79446C10.5111 3.79446 10.735 3.5706 10.735 3.29446C10.735 3.01832 10.5111 2.79446 10.235 2.79446V3.79446ZM0.823242 2.79446C0.5471 2.79446 0.323242 3.01832 0.323242 3.29446C0.323242 3.5706 0.5471 3.79446 0.823242 3.79446V2.79446ZM1.5124 13.8994L1.15885 14.253L1.15885 14.253L1.5124 13.8994ZM0.823242 12.2356H1.32324H0.823242ZM3.60663 8.66731L5.17557 10.2363L5.88268 9.52914L4.31374 7.9602L3.60663 8.66731ZM4.31374 11.8052L5.88268 10.2363L5.17557 9.52914L3.60663 11.0981L4.31374 11.8052ZM6.74451 7.9602L5.17557 9.52914L5.88268 10.2363L7.45162 8.66731L6.74451 7.9602ZM7.45162 11.0981L5.88268 9.52914L5.17557 10.2363L6.74451 11.8052L7.45162 11.0981ZM7.18721 0.912109H4.05026V1.91211H7.18721V0.912109ZM10.235 2.79446H0.823242V3.79446H10.235V2.79446ZM1.60724 5.67682H9.45101V4.67682H1.60724V5.67682ZM9.45101 5.67682C9.60786 5.67682 9.73501 5.80397 9.73501 5.96082H10.735C10.735 5.25168 10.1601 4.67682 9.45101 4.67682V5.67682ZM9.73501 5.96082V12.2356H10.735V5.96082H9.73501ZM9.73501 12.2356C9.73501 13.259 8.90542 14.0886 7.88207 14.0886V15.0886C9.4577 15.0886 10.735 13.8113 10.735 12.2356H9.73501ZM7.88207 14.0886H3.17618V15.0886H7.88207V14.0886ZM3.17618 14.0886C2.68475 14.0886 2.21345 13.8934 1.86596 13.5459L1.15885 14.253C1.69388 14.788 2.41954 15.0886 3.17618 15.0886V14.0886ZM1.86596 13.5459C1.51846 13.1984 1.32324 12.7271 1.32324 12.2356H0.323242C0.323242 12.9923 0.623819 13.7179 1.15885 14.253L1.86596 13.5459ZM1.32324 12.2356V5.96082H0.323242V12.2356H1.32324ZM1.32324 5.96082C1.32324 5.80397 1.45039 5.67682 1.60724 5.67682V4.67682C0.898109 4.67682 0.323242 5.25168 0.323242 5.96082H1.32324Z" fill="#FF4B28"/>
</svg>
