<svg width="14" height="15" viewBox="0 0 14 15" fill="none" xmlns="http://www.w3.org/2000/svg">
<path d="M1.75 10.0714C1.75 9.65721 1.41421 9.32143 1 9.32143C0.585786 9.32143 0.25 9.65721 0.25 10.0714H1.75ZM1 10.9286H0.25H1ZM13.75 10.0714C13.75 9.65721 13.4142 9.32143 13 9.32143C12.5858 9.32143 12.25 9.65721 12.25 10.0714H13.75ZM7.58565 1.96852C7.84441 1.64507 7.79197 1.17311 7.46852 0.914348C7.14507 0.655591 6.67311 0.708032 6.41435 1.03148L7.58565 1.96852ZM2.98578 5.31719C2.72702 5.64064 2.77946 6.11261 3.10291 6.37137C3.42635 6.63012 3.89832 6.57768 4.15708 6.25424L2.98578 5.31719ZM7.58565 1.03148C7.32689 0.708032 6.85493 0.655591 6.53148 0.914348C6.20803 1.17311 6.15559 1.64507 6.41435 1.96852L7.58565 1.03148ZM9.84292 6.25424C10.1017 6.57768 10.5736 6.63012 10.8971 6.37137C11.2205 6.11261 11.273 5.64064 11.0142 5.31719L9.84292 6.25424ZM7.75 1.5C7.75 1.08579 7.41421 0.75 7 0.75C6.58579 0.75 6.25 1.08579 6.25 1.5H7.75ZM6.25 10.9286C6.25 11.3428 6.58579 11.6786 7 11.6786C7.41421 11.6786 7.75 11.3428 7.75 10.9286H6.25ZM0.25 10.0714V10.9286H1.75V10.0714H0.25ZM0.25 10.9286C0.25 12.7629 1.73705 14.25 3.57143 14.25V12.75C2.56548 12.75 1.75 11.9345 1.75 10.9286H0.25ZM3.57143 14.25H10.4286V12.75H3.57143V14.25ZM10.4286 14.25C12.2629 14.25 13.75 12.7629 13.75 10.9286H12.25C12.25 11.9345 11.4345 12.75 10.4286 12.75V14.25ZM13.75 10.9286V10.0714H12.25V10.9286H13.75ZM6.41435 1.03148L2.98578 5.31719L4.15708 6.25424L7.58565 1.96852L6.41435 1.03148ZM6.41435 1.96852L9.84292 6.25424L11.0142 5.31719L7.58565 1.03148L6.41435 1.96852ZM6.25 1.5V10.9286H7.75V1.5H6.25Z" fill="white"/>
</svg>
