<svg width="16" height="15" viewBox="0 0 16 15" fill="none" xmlns="http://www.w3.org/2000/svg">
<path class="hover-marker" d="M7.99641 9.70278C9.15563 9.70278 10.0954 8.76305 10.0954 7.60383C10.0954 6.44461 9.15563 5.50488 7.99641 5.50488C6.83719 5.50488 5.89746 6.44461 5.89746 7.60383C5.89746 8.76305 6.83719 9.70278 7.99641 9.70278Z" stroke="#455A64" stroke-width="1.5" stroke-miterlimit="10" stroke-linecap="round" stroke-linejoin="round"/>
<path class="hover-marker" d="M1 8.21962V6.98824C1 6.2606 1.5947 5.6589 2.32934 5.6589C3.5957 5.6589 4.11344 4.76335 3.47676 3.6649C3.11294 3.03521 3.32983 2.21662 3.96652 1.8528L5.17691 1.16015C5.72964 0.831315 6.44328 1.02722 6.77211 1.57994L6.84908 1.71287C7.47876 2.81133 8.51424 2.81133 9.15092 1.71287L9.22789 1.57994C9.55672 1.02722 10.2704 0.831315 10.8231 1.16015L12.0335 1.8528C12.6702 2.21662 12.8871 3.03521 12.5232 3.6649C11.8866 4.76335 12.4043 5.6589 13.6707 5.6589C14.3983 5.6589 15 6.2536 15 6.98824V8.21962C15 8.94726 14.4053 9.54896 13.6707 9.54896C12.4043 9.54896 11.8866 10.4445 12.5232 11.543C12.8871 12.1796 12.6702 12.9912 12.0335 13.3551L10.8231 14.0477C10.2704 14.3765 9.55672 14.1806 9.22789 13.6279L9.15092 13.495C8.52124 12.3965 7.48576 12.3965 6.84908 13.495L6.77211 13.6279C6.44328 14.1806 5.72964 14.3765 5.17691 14.0477L3.96652 13.3551C3.32983 12.9912 3.11294 12.1726 3.47676 11.543C4.11344 10.4445 3.5957 9.54896 2.32934 9.54896C1.5947 9.54896 1 8.94726 1 8.21962Z" stroke="#455A64" stroke-width="1.5" stroke-miterlimit="10" stroke-linecap="round" stroke-linejoin="round"/>
</svg>
