<svg width="13" height="10" viewBox="0 0 13 10" fill="none" xmlns="http://www.w3.org/2000/svg">
<g clip-path="url(#clip0_10768_917)">
<circle class="marker" cx="6.5" cy="6.5" r="2.75" stroke="#ABBCCC" stroke-width="1.5"/>
<mask id="path-2-inside-1_10768_917" fill="white">
<path d="M0.0200132 5.99032C0.148126 4.36151 0.884944 2.84069 2.08378 1.73062C3.28261 0.620559 4.85552 0.00268404 6.48936 8.714e-06C8.1232 -0.00266661 9.69812 0.610054 10.9006 1.71619C12.103 2.82232 12.8448 4.34072 12.9783 5.9691L11.5329 6.08756C11.4292 4.82249 10.8529 3.64287 9.91874 2.78354C8.98456 1.9242 7.76103 1.44819 6.49173 1.45027C5.22243 1.45235 4.00046 1.93236 3.06911 2.79475C2.13776 3.65714 1.56534 4.83865 1.46581 6.10404L0.0200132 5.99032Z"/>
</mask>
<path class="marker" d="M0.0200132 5.99032C0.148126 4.36151 0.884944 2.84069 2.08378 1.73062C3.28261 0.620559 4.85552 0.00268404 6.48936 8.714e-06C8.1232 -0.00266661 9.69812 0.610054 10.9006 1.71619C12.103 2.82232 12.8448 4.34072 12.9783 5.9691L11.5329 6.08756C11.4292 4.82249 10.8529 3.64287 9.91874 2.78354C8.98456 1.9242 7.76103 1.44819 6.49173 1.45027C5.22243 1.45235 4.00046 1.93236 3.06911 2.79475C2.13776 3.65714 1.56534 4.83865 1.46581 6.10404L0.0200132 5.99032Z" stroke="#ABBCCC" stroke-width="3" stroke-linejoin="round" mask="url(#path-2-inside-1_10768_917)"/>
</g>
<defs>
<clipPath id="clip0_10768_917">
<rect width="13" height="10" fill="white"/>
</clipPath>
</defs>
</svg>
