<svg width="29" height="30" viewBox="0 0 29 30" fill="none" xmlns="http://www.w3.org/2000/svg">
<path d="M1.55762 22.2686V6.47324C1.55762 5.41604 2.4082 4.56055 3.45932 4.56055H19.3852" stroke="#455A64" stroke-width="1.5" stroke-miterlimit="10" stroke-linecap="round"/>
<path d="M25.2436 4.56055C26.4815 4.56055 27.4842 5.56906 27.4842 6.81404V23.3119C27.4842 24.5568 26.4815 25.5653 25.2436 25.5653H4.3457" stroke="#455A64" stroke-width="1.5" stroke-miterlimit="10" stroke-linecap="round"/>
<path d="M27.3174 2.02734L1.52344 27.9704" stroke="#455A64" stroke-width="1.5" stroke-miterlimit="10" stroke-linecap="round"/>
<path d="M7.60156 16.3759L10.9555 11.3125L12 13" stroke="#455A64" stroke-width="1.5" stroke-linecap="round" stroke-linejoin="round"/>
<path d="M14.4209 16.3773L17.0971 20.2653L21.0665 15.8418L24.7108 20.9122" stroke="#455A64" stroke-width="1.5" stroke-linecap="round" stroke-linejoin="round"/>
<path d="M21.4469 8.73242C22.4703 9.62269 22.581 11.1737 21.6958 12.2031C20.8107 13.2325 19.2686 13.3437 18.2451 12.4535" stroke="#455A64" stroke-width="1.5" stroke-linecap="round" stroke-linejoin="round"/>
</svg>
