<svg width="14" height="14" viewBox="0 0 14 14" fill="none" xmlns="http://www.w3.org/2000/svg">
<path class="marker" d="M7.57303 3.36665C7.74573 3.15118 7.71105 2.8365 7.49557 2.6638C7.2801 2.4911 6.96542 2.52578 6.79272 2.74126L7.57303 3.36665ZM2.02213 9.49308L2.40081 9.81957C2.40472 9.81504 2.40854 9.81044 2.41228 9.80578L2.02213 9.49308ZM1.8725 9.85883L1.37347 9.82628L1.37304 9.8357L1.8725 9.85883ZM1.75 12.504L1.25054 12.4808C1.24939 12.5057 1.25009 12.5305 1.25264 12.5553L1.75 12.504ZM2.43863 13.1051L2.45497 13.6048C2.48832 13.6037 2.52147 13.5993 2.55393 13.5916L2.43863 13.1051ZM5.06362 12.483L5.17895 12.9695L5.18671 12.9676L5.06362 12.483ZM5.4005 12.2695L5.78624 12.5877L5.79057 12.5823L5.4005 12.2695ZM11.0756 5.99176C11.2483 5.77633 11.2137 5.46164 10.9983 5.28888C10.7829 5.11613 10.4682 5.15072 10.2954 5.36615L11.0756 5.99176ZM6.79545 2.74072C6.62268 2.95613 6.65725 3.27082 6.87267 3.44359C7.08809 3.61636 7.40278 3.58179 7.57555 3.36637L6.79545 2.74072ZM8.575 1.32104L8.96505 1.63387C8.97162 1.62568 8.97793 1.61728 8.98398 1.60869L8.575 1.32104ZM10.0004 1.04104L10.3202 0.65675C10.3043 0.643496 10.2876 0.631245 10.2701 0.620067L10.0004 1.04104ZM11.9578 2.67029L12.3116 2.31707C12.3008 2.30619 12.2894 2.29583 12.2776 2.286L11.9578 2.67029ZM12.2526 3.38856L12.7526 3.39131V3.39131L12.2526 3.38856ZM11.9499 4.10354L11.5999 3.74645C11.5857 3.76034 11.5724 3.77506 11.56 3.79054L11.9499 4.10354ZM10.2956 5.36554C10.1227 5.58087 10.1572 5.89558 10.3725 6.06845C10.5878 6.24132 10.9025 6.20689 11.0754 5.99155L10.2956 5.36554ZM7.6799 2.97986C7.63898 2.70676 7.38442 2.51855 7.11133 2.55948C6.83823 2.6004 6.65002 2.85496 6.69095 3.12805L7.6799 2.97986ZM10.7527 6.1744C11.0264 6.13722 11.2181 5.88526 11.1809 5.61164C11.1437 5.33801 10.8917 5.14633 10.6181 5.18351L10.7527 6.1744ZM6.79272 2.74126L1.63197 9.18038L2.41228 9.80578L7.57303 3.36665L6.79272 2.74126ZM1.64344 9.16659C1.48417 9.35132 1.38943 9.5829 1.37356 9.82629L2.37144 9.89137C2.37317 9.86488 2.38348 9.83967 2.40081 9.81957L1.64344 9.16659ZM1.37304 9.8357L1.25054 12.4808L2.24946 12.5271L2.37196 9.88196L1.37304 9.8357ZM1.25264 12.5553C1.31569 13.1665 1.84079 13.6249 2.45497 13.6048L2.42228 12.6053C2.33293 12.6083 2.25653 12.5416 2.24736 12.4527L1.25264 12.5553ZM2.55393 13.5916L5.17893 12.9695L4.94832 11.9964L2.32332 12.6186L2.55393 13.5916ZM5.18671 12.9676C5.42184 12.9079 5.63182 12.7748 5.7862 12.5876L5.0148 11.9513C4.99568 11.9745 4.96967 11.9909 4.94054 11.9983L5.18671 12.9676ZM5.79057 12.5823L11.0756 5.99176L10.2954 5.36615L5.01043 11.9567L5.79057 12.5823ZM7.57555 3.36637L8.96505 1.63387L8.18495 1.00822L6.79545 2.74072L7.57555 3.36637ZM8.98398 1.60869C9.15343 1.36776 9.4826 1.3031 9.7306 1.46202L10.2701 0.620067C9.57125 0.17219 8.64357 0.354423 8.16602 1.0334L8.98398 1.60869ZM9.6805 1.42534L11.6379 3.05459L12.2776 2.286L10.3202 0.65675L9.6805 1.42534ZM11.6039 3.02352C11.6998 3.11961 11.7533 3.25005 11.7526 3.38581L12.7526 3.39131C12.7548 2.98875 12.596 2.60199 12.3116 2.31707L11.6039 3.02352ZM11.7526 3.38581C11.7518 3.52158 11.6969 3.65142 11.5999 3.74645L12.2999 4.46064C12.5874 4.17886 12.7503 3.79387 12.7526 3.39131L11.7526 3.38581ZM11.56 3.79054L10.2956 5.36554L11.0754 5.99155L12.3398 4.41655L11.56 3.79054ZM6.69095 3.12805C6.98396 5.08342 8.79355 6.44061 10.7527 6.1744L10.6181 5.18351C9.20087 5.37607 7.89186 4.39432 7.6799 2.97986L6.69095 3.12805Z" fill="#259FFF"/>
</svg>
