<svg width="21" height="13" viewBox="0 0 21 13" fill="none" xmlns="http://www.w3.org/2000/svg">
<g clip-path="url(#clip0_11074_990)">
<path d="M20.9304 6.15755C20.9112 6.00695 20.8542 5.86411 20.765 5.74312L20.5847 5.50318C17.9216 1.95436 14.3573 0 10.5533 0C6.74943 0 3.18724 1.96308 0.521948 5.50318L0.17422 5.96778C0.0830437 6.09053 0.0251752 6.23599 0.00654836 6.38929C-0.0120785 6.54258 0.00920438 6.6982 0.0682022 6.84027C0.0869698 6.99162 0.143989 7.13528 0.233583 7.25688L0.413821 7.49681C3.07911 11.0435 6.6413 12.9978 10.4452 12.9978C14.2491 12.9978 17.8135 11.0347 20.4766 7.49681L20.8265 7.03221C20.9177 6.90902 20.9754 6.76308 20.9937 6.60936C21.0119 6.45565 20.9901 6.29971 20.9304 6.15755ZM7.57213 6.5C7.57213 5.69011 7.88489 4.91339 8.44159 4.34072C8.99829 3.76804 9.75333 3.44631 10.5406 3.44631C11.3279 3.44631 12.083 3.76804 12.6397 4.34072C13.1964 4.91339 13.5091 5.69011 13.5091 6.5C13.5091 7.30989 13.1964 8.08661 12.6397 8.65929C12.083 9.23197 11.3279 9.55369 10.5406 9.55369C10.1503 9.55455 9.76357 9.4762 9.40268 9.32312C9.04179 9.17004 8.7138 8.94526 8.43747 8.66161C8.16115 8.37796 7.94192 8.04102 7.79234 7.67011C7.64277 7.29919 7.56577 6.90156 7.56578 6.5H7.57213ZM1.87261 6.5698C3.97177 3.77349 6.67734 2.11141 9.57375 1.80168C8.52835 2.03242 7.59129 2.62445 6.91849 3.47927C6.24569 4.33408 5.87773 5.40013 5.87585 6.5C5.87701 7.61915 6.25754 8.70285 6.95188 9.56443C7.64622 10.426 8.6109 11.0115 9.67976 11.2201C6.74307 10.9758 4.00146 9.34866 1.86626 6.5698H1.87261ZM11.5711 11.1852C12.6046 10.9445 13.5279 10.3498 14.1897 9.49853C14.8516 8.64729 15.2127 7.59002 15.2139 6.5C15.2115 5.39513 14.8398 4.32472 14.1611 3.46843C13.4823 2.61214 12.5379 2.02209 11.4863 1.79731C14.3552 2.08741 17.0353 3.70587 19.1323 6.43238C17.0671 9.18506 14.4124 10.8406 11.5648 11.1852H11.5711Z" fill="#707E87"/>
<path d="M12.0541 7.14742C12.4009 6.28599 12.0033 5.29842 11.1659 4.94161C10.3285 4.5848 9.36846 4.99386 9.0216 5.85528C8.67474 6.71671 9.07239 7.70429 9.90978 8.06111C10.7472 8.41792 11.7072 8.00884 12.0541 7.14742Z" fill="#707E87"/>
</g>
<defs>
<clipPath id="clip0_11074_990">
<rect width="21" height="13" fill="white"/>
</clipPath>
</defs>
</svg>
